<svg width="539" height="551" viewBox="0 0 539 551" fill="none" xmlns="http://www.w3.org/2000/svg">
<g clip-path="url(#clip0_115_67)">
<path d="M175.679 231.586H122.411V373.043L175.679 318.876V231.586Z" fill="#FFDF00"/>
<path d="M205.043 293.825L215.872 302.673L251.861 332.029V190.184H198.622V288.414L202.445 291.673L205.043 293.825Z" fill="#FFDF00"/>
<mask id="mask0_115_67" style="mask-type:luminance" maskUnits="userSpaceOnUse" x="269" y="129" width="61" height="239">
<path d="M269.549 129.739H329.327V367.333H269.549V129.739Z" fill="white"/>
</mask>
<g mask="url(#mask0_115_67)">
<path d="M328.072 306.47V129.768H274.833V350.742L286.333 360.129L328.072 306.47Z" fill="#FFDF00"/>
</g>
<mask id="mask1_115_67" style="mask-type:luminance" maskUnits="userSpaceOnUse" x="108" y="214" width="321" height="207">
<path d="M108.955 214.278H428.393V420.903H108.955V214.278Z" fill="white"/>
</mask>
<g mask="url(#mask1_115_67)">
<path d="M396.84 227.61L362.485 241.451L383.238 258.371L347.745 304.048L328.072 329.338L326.058 331.939L288.551 380.158L277.46 371.13L274.833 368.948L256.327 353.851L251.861 350.234L207.203 313.794L203.438 310.745L198.622 315.617L186.042 328.412L175.68 338.964L136.918 378.334L122.411 393.102L108.955 406.763L121.477 419.677L122.411 418.721L136.918 403.983L175.68 364.583L186.042 354.031L198.622 341.266L204.722 335.048L207.203 337.051L251.861 373.491L256.327 377.109L274.833 392.205L277.46 394.357L291.382 405.717L326.584 360.458L328.072 358.515L347.745 333.225L396.84 270.059L397.132 269.701L417.885 286.62L428.393 214.906L396.84 227.61Z" fill="#FFDF00"/>
</g>
</g>
<defs>
<clipPath id="clip0_115_67">
<rect width="538" height="551" fill="white" transform="translate(0.549316)"/>
</clipPath>
</defs>
</svg>
