<svg width="539" height="551" viewBox="0 0 539 551" fill="none" xmlns="http://www.w3.org/2000/svg">
<g clip-path="url(#clip0_115_83)">
<path d="M244.097 188.121H240.186C235.574 188.121 231.838 191.618 231.838 195.953V229.165H252.445V195.953C252.445 191.618 248.709 188.121 244.097 188.121Z" fill="#FFDF00"/>
<path d="M299.409 188.121H295.468C290.857 188.121 287.121 191.618 287.121 195.953V229.165H307.728V195.953C307.728 191.618 303.991 188.121 299.409 188.121Z" fill="#FFDF00"/>
<mask id="mask0_115_83" style="mask-type:luminance" maskUnits="userSpaceOnUse" x="124" y="129" width="292" height="292">
<path d="M124.337 129.739H415.754V420.903H124.337V129.739Z" fill="white"/>
</mask>
<g mask="url(#mask0_115_83)">
<path d="M269.783 130.067C189.719 130.067 124.571 196.76 124.571 278.788C124.571 318.368 139.574 355.645 166.865 383.715C183.006 400.336 202.971 412.951 224.629 420.185C226.088 420.664 227.547 420.903 228.978 420.903C234.874 420.903 240.361 417.047 242.287 411.008C244.681 403.505 240.653 395.404 233.327 392.952C215.843 387.093 199.731 376.929 186.684 363.477C164.676 340.848 152.533 310.745 152.533 278.788C152.533 212.574 205.131 158.706 269.783 158.706C334.435 158.706 387.033 212.574 387.033 278.788C387.033 310.864 374.861 340.997 352.736 363.686C344.242 371.489 323.139 387.183 310.501 387.183C303.992 387.183 299.146 385.09 295.177 380.606C285.165 369.187 282.976 346.049 283.064 329.966C307.348 328.711 326.671 308.204 326.671 283.033V238.432H212.895V283.033C212.895 307.696 231.459 327.904 255.072 329.877C254.926 349.068 257.553 380.516 274.336 399.678C283.56 410.261 296.082 415.851 310.501 415.851C337.558 415.851 368.352 387.84 371.767 384.672L372.234 384.223C399.817 356.123 415.024 318.667 415.024 278.788C415.024 196.76 349.876 130.067 269.783 130.067Z" fill="#FFDF00"/>
</g>
</g>
<defs>
<clipPath id="clip0_115_83">
<rect width="538" height="551" fill="white" transform="translate(0.549316)"/>
</clipPath>
</defs>
</svg>
