<svg width="539" height="551" viewBox="0 0 539 551" fill="none" xmlns="http://www.w3.org/2000/svg">
<g clip-path="url(#clip0_115_94)">
<mask id="mask0_115_94" style="mask-type:luminance" maskUnits="userSpaceOnUse" x="116" y="166" width="305" height="296">
<path d="M116.339 166.239H420.803V461.17H116.339V166.239Z" fill="white"/>
</mask>
<g mask="url(#mask0_115_94)">
<path d="M418.818 299.445L275.095 169.437C271.358 166.059 265.754 166.059 262.047 169.437L118.295 299.445C117.244 300.401 116.631 301.806 116.631 303.241V456.177C116.631 458.957 118.849 461.229 121.564 461.229H222.614C225.328 461.229 227.517 458.957 227.517 456.177V358.485C227.517 347.364 236.362 338.307 247.22 338.307H289.893C300.78 338.307 309.595 347.364 309.595 358.485V456.177C309.595 458.957 311.813 461.229 314.528 461.229H415.549C418.263 461.229 420.482 458.957 420.482 456.177V303.241C420.482 301.806 419.869 300.401 418.818 299.445Z" fill="#FFDF00"/>
</g>
<mask id="mask1_115_94" style="mask-type:luminance" maskUnits="userSpaceOnUse" x="70" y="88" width="399" height="196">
<path d="M70.1338 88.0967H468.03V283.153H70.1338V88.0967Z" fill="white"/>
</mask>
<g mask="url(#mask1_115_94)">
<path d="M458.427 249.014L294.563 101.519C279.706 88.1265 257.436 88.1265 242.55 101.519L78.7153 249.014C70.6302 256.278 70.2215 269.013 77.8397 276.815C84.7865 283.93 95.9365 284.289 103.292 277.622L255.538 140.291C262.981 133.595 274.131 133.595 281.574 140.291L433.821 277.622C441.206 284.289 452.356 283.93 459.302 276.815C466.891 269.013 466.483 256.278 458.427 249.014Z" fill="#FFDF00"/>
</g>
</g>
<defs>
<clipPath id="clip0_115_94">
<rect width="538" height="551" fill="white" transform="translate(0.548828)"/>
</clipPath>
</defs>
</svg>
