<svg width="539" height="551" viewBox="0 0 539 551" fill="none" xmlns="http://www.w3.org/2000/svg">
<g clip-path="url(#clip0_115_108)">
<path d="M356.852 365.659C355.976 373.76 347.745 379.111 335.252 387.243C313.565 401.352 291.908 402.877 282.655 403.415C254.021 405.179 232.976 396.151 221.972 391.278C203.233 382.998 193.864 378.842 192.317 371.07C188.581 352.117 231.05 317.65 275.241 317.112C316.835 316.604 358.953 345.989 356.852 365.659Z" fill="#FFDF00"/>
<mask id="mask0_115_108" style="mask-type:luminance" maskUnits="userSpaceOnUse" x="135" y="137" width="271" height="277">
<path d="M135.049 137.75H405.713V413.25H135.049V137.75Z" fill="white"/>
</mask>
<g mask="url(#mask0_115_108)">
<path d="M391.82 275.978C391.469 326.409 360.413 373.013 313.741 390.142C267.068 407.271 213.245 392.235 181.43 352.715C150.052 313.764 146.316 256.876 171.535 213.71C196.987 170.125 248.067 146.718 296.753 156.972C351.715 168.511 391.411 218.702 391.79 275.978C391.878 284.647 405.042 284.677 404.984 275.978C404.575 219.868 370.279 169.138 318.878 149.438C267.419 129.709 207.057 146.33 172.09 189.705C136.976 233.32 131.722 296.366 160.181 345.063C188.493 393.52 244.418 418.87 298.504 408.347C359.946 396.42 404.517 339.502 404.984 275.978C405.042 267.279 391.878 267.279 391.79 275.978H391.82Z" fill="#FFDF00"/>
</g>
<path d="M326.846 243.663C326.846 247.37 326.496 250.987 325.795 254.604C325.095 258.221 324.044 261.719 322.672 265.127C321.3 268.505 319.607 271.733 317.622 274.783C315.638 277.862 313.361 280.672 310.821 283.272C308.282 285.873 305.509 288.205 302.532 290.238C299.555 292.3 296.402 294.004 293.075 295.439C289.777 296.844 286.332 297.89 282.83 298.608C279.298 299.325 275.737 299.684 272.147 299.684C268.557 299.684 264.996 299.325 261.493 298.608C257.961 297.89 254.546 296.844 251.219 295.439C247.921 294.004 244.768 292.3 241.762 290.238C238.785 288.205 236.012 285.873 233.472 283.272C230.933 280.672 228.685 277.862 226.671 274.783C224.687 271.733 222.994 268.505 221.622 265.127C220.25 261.719 219.228 258.221 218.528 254.604C217.827 250.987 217.477 247.37 217.477 243.663C217.477 239.986 217.827 236.369 218.528 232.752C219.228 229.135 220.25 225.637 221.622 222.229C222.994 218.851 224.687 215.623 226.671 212.574C228.685 209.495 230.933 206.685 233.472 204.084C236.012 201.483 238.785 199.152 241.762 197.119C244.768 195.056 247.921 193.352 251.219 191.917C254.546 190.512 257.961 189.466 261.493 188.749C264.996 188.031 268.557 187.672 272.147 187.672C275.737 187.672 279.298 188.031 282.83 188.749C286.332 189.466 289.777 190.512 293.075 191.917C296.402 193.352 299.555 195.056 302.532 197.119C305.509 199.152 308.282 201.483 310.821 204.084C313.361 206.685 315.638 209.495 317.622 212.574C319.607 215.623 321.3 218.851 322.672 222.229C324.044 225.637 325.095 229.135 325.795 232.752C326.496 236.369 326.846 239.986 326.846 243.663Z" fill="#FFDF00"/>
</g>
<defs>
<clipPath id="clip0_115_108">
<rect width="538" height="551" fill="white" transform="translate(0.549316)"/>
</clipPath>
</defs>
</svg>
