<svg width="539" height="551" viewBox="0 0 539 551" fill="none" xmlns="http://www.w3.org/2000/svg">
<g clip-path="url(#clip0_115_119)">
<mask id="mask0_115_119" style="mask-type:luminance" maskUnits="userSpaceOnUse" x="124" y="129" width="293" height="294">
<path d="M124.892 129.739H416.308V422.457H124.892V129.739Z" fill="white"/>
</mask>
<g mask="url(#mask0_115_119)">
<path d="M269.549 421.411C264.003 421.411 258.487 419.288 254.167 415.073L224.366 385.837H187.793C153.146 385.837 124.921 356.96 124.921 321.446V194.189C124.892 158.675 153.088 129.798 187.763 129.798H351.277C385.923 129.798 414.148 158.675 414.148 194.189V321.357C414.148 356.87 385.923 385.748 351.277 385.748H314.675L284.873 414.984C280.582 419.229 275.037 421.291 269.491 421.291L269.549 421.411ZM187.763 154.49C166.339 154.49 149.001 172.307 149.001 194.189V321.357C149.001 343.269 166.398 361.055 187.763 361.055H225.066C230.816 361.055 236.304 363.268 240.448 367.363L269.491 395.882L298.504 367.363C302.649 363.268 308.165 361.055 313.886 361.055H351.218C372.643 361.055 389.98 343.239 389.98 321.357V194.189C389.98 172.247 372.584 154.49 351.218 154.49H187.763ZM286.42 214.427C287.559 189.436 251.511 189.436 252.649 214.427L258.487 279.924C259.83 293.496 279.181 293.585 280.641 279.924L286.449 214.427H286.42ZM286.274 319.563C286.274 310.087 278.802 302.434 269.549 302.434C260.267 302.434 252.795 310.087 252.795 319.563C252.795 329.069 260.267 336.722 269.549 336.722C278.802 336.722 286.274 329.069 286.274 319.563Z" fill="#FFDF00"/>
</g>
</g>
<defs>
<clipPath id="clip0_115_119">
<rect width="538" height="551" fill="white" transform="translate(0.549316)"/>
</clipPath>
</defs>
</svg>
